<?xml version="1.0" encoding="utf-8"?>
<!-- Generator: Adobe Illustrator 22.1.0, SVG Export Plug-In . SVG Version: 6.00 Build 0)  -->
<!DOCTYPE svg PUBLIC "-//W3C//DTD SVG 1.1//EN" "http://www.w3.org/Graphics/SVG/1.1/DTD/svg11.dtd">
<svg version="1.1" id="Layer_1" xmlns="http://www.w3.org/2000/svg" xmlns:xlink="http://www.w3.org/1999/xlink" x="0px" y="0px"
	 viewBox="0 0 360 360" style="enable-background:new 0 0 360 360;" xml:space="preserve">
<style type="text/css">
	.st0{fill:#BB6C29;}
	.st1{fill:#FFFFFF;}
	.st2{fill:#F68B24;}
</style>
<g>
	<polygon class="st0" points="16.8,112.6 16.8,229.6 299.4,229.6 323.4,251 323.4,229.6 349.9,229.6 349.9,112.6 	"/>
	<polygon class="st1" points="10,108.5 10,225.5 292.6,225.5 316.7,246.9 316.7,225.5 343.1,225.5 343.1,108.5 	"/>
	<g>
		<path class="st2" d="M43.3,183.8H32.5v-10.1h12.2l2.2-14.7H36v-10.1h12.2l3.6-25.2h10.6l-3.6,25.2h12.4l3.6-25.2h10.5l-3.6,25.2
			h10.9v10.1H80.3l-2.1,14.7h10.9v10.1H77L73.3,209H62.8l3.6-25.2H53.8L50.2,209H39.7L43.3,183.8z M57.3,158.9l-2.1,14.7h12.4
			l2.1-14.7H57.3z"/>
	</g>
	<g>
		<path class="st2" d="M262.4,139.4c-1.6-3.7-3.9-6.8-6.7-9.4c-2.9-2.6-6.2-4.6-10.1-6c-3.9-1.4-8.1-2.1-12.6-2.1
			c-4.5,0-8.7,0.7-12.6,2.1c-3.9,1.4-7.2,3.4-10.1,6c-2.8,2.6-5,5.7-6.7,9.4c-1.6,3.7-2.4,7.8-2.4,12.4c0,4.6,0.8,8.8,2.4,12.5
			c1.6,3.8,3.8,7,6.7,9.7c2.8,2.7,6.2,4.7,10.1,6.2c3.9,1.5,8.1,2.2,12.6,2.2c4.5,0,8.7-0.7,12.6-2.2c3.9-1.5,7.2-3.5,10.1-6.2
			c2.9-2.7,5.1-5.9,6.7-9.7c1.6-3.8,2.4-7.9,2.4-12.5C264.8,147.3,264,143.1,262.4,139.4z M243.4,157c-0.6,1.6-1.4,2.9-2.4,4
			c-1,1.1-2.2,2-3.6,2.6c-1.4,0.6-2.9,0.9-4.5,0.9c-1.6,0-3.1-0.3-4.5-0.9c-1.4-0.6-2.6-1.5-3.6-2.6c-1-1.1-1.8-2.5-2.3-4
			c-0.6-1.6-0.8-3.3-0.8-5.2c0-1.8,0.3-3.5,0.8-5.1c0.6-1.5,1.3-2.8,2.3-3.9c1-1,2.2-1.9,3.6-2.5c1.4-0.6,2.9-0.9,4.5-0.9
			c1.6,0,3.1,0.3,4.5,0.9c1.4,0.6,2.6,1.4,3.6,2.5c1,1.1,1.8,2.3,2.4,3.9c0.6,1.5,0.8,3.2,0.8,5.1C244.3,153.7,244,155.4,243.4,157z
			"/>
		<polygon class="st2" points="96.6,123.6 135.3,123.6 135.3,139.6 115.5,139.6 115.5,145.6 132.9,145.6 132.9,161.4 115.5,161.4 
			115.5,180.8 96.6,180.8 		"/>
		<path class="st2" d="M113,199.1v-11.8h-8.5l-7.9,11.5v5.8h10.1v3.7h6.4v-3.7h2.8v-5.5H113z M106.7,199.1h-3.6l3.5-5.3h0.1V199.1z"
			/>
		<polygon class="st2" points="140,193.3 134.9,193.3 134.9,208.4 127.8,208.4 127.8,193.3 122.6,193.3 122.6,187.4 140,187.4 		"/>
		<polygon class="st2" points="161.8,208.4 154.7,208.4 154.7,200.4 149,200.4 149,208.4 141.9,208.4 141.9,187.4 148.9,187.4 
			148.9,194.5 154.7,194.5 154.7,187.4 161.8,187.4 		"/>
		<path class="st2" d="M196.5,139.4c-1.6-3.7-3.9-6.8-6.7-9.4c-2.9-2.6-6.2-4.6-10.1-6c-3.9-1.4-8.1-2.1-12.6-2.1
			c-4.5,0-8.7,0.7-12.6,2.1c-3.9,1.4-7.2,3.4-10.1,6c-2.8,2.6-5,5.7-6.7,9.4c-1.6,3.7-2.4,7.8-2.4,12.4c0,4.6,0.8,8.8,2.4,12.5
			c1.6,3.8,3.8,7,6.7,9.7c2.8,2.7,6.2,4.7,10.1,6.2c3.9,1.5,8.1,2.2,12.6,2.2c4.5,0,8.7-0.7,12.6-2.2c3.9-1.5,7.2-3.5,10.1-6.2
			c2.9-2.7,5.1-5.9,6.7-9.7c1.6-3.8,2.4-7.9,2.4-12.5C198.9,147.3,198.1,143.1,196.5,139.4z M177.6,157c-0.6,1.6-1.4,2.9-2.4,4
			c-1,1.1-2.2,2-3.6,2.6c-1.4,0.6-2.9,0.9-4.5,0.9c-1.6,0-3.1-0.3-4.5-0.9c-1.4-0.6-2.6-1.5-3.6-2.6c-1-1.1-1.8-2.5-2.3-4
			c-0.6-1.6-0.8-3.3-0.8-5.2c0-1.8,0.3-3.5,0.8-5.1c0.6-1.5,1.3-2.8,2.3-3.9c1-1,2.2-1.9,3.6-2.5c1.4-0.6,2.9-0.9,4.5-0.9
			c1.6,0,3.1,0.3,4.5,0.9c1.4,0.6,2.6,1.4,3.6,2.5c1,1.1,1.8,2.3,2.4,3.9c0.6,1.5,0.8,3.2,0.8,5.1
			C178.4,153.7,178.1,155.4,177.6,157z"/>
		<path class="st2" d="M186.9,193.2c-0.6-1.4-1.4-2.5-2.5-3.5c-1-0.9-2.3-1.7-3.7-2.2c-1.4-0.5-3-0.8-4.6-0.8
			c-1.7,0-3.2,0.3-4.6,0.8c-1.4,0.5-2.7,1.2-3.7,2.2c-1,0.9-1.9,2.1-2.4,3.5c-0.6,1.4-0.9,2.9-0.9,4.6c0,1.7,0.3,3.2,0.9,4.6
			c0.6,1.4,1.4,2.6,2.4,3.5c1,1,2.3,1.7,3.7,2.3c1.4,0.5,3,0.8,4.6,0.8c1.7,0,3.2-0.3,4.6-0.8c1.4-0.5,2.7-1.3,3.7-2.3
			c1-1,1.9-2.2,2.5-3.5c0.6-1.4,0.9-2.9,0.9-4.6C187.8,196.1,187.5,194.5,186.9,193.2z M179.9,199.6c-0.2,0.6-0.5,1.1-0.9,1.5
			c-0.4,0.4-0.8,0.7-1.3,1c-0.5,0.2-1.1,0.3-1.6,0.3c-0.6,0-1.1-0.1-1.7-0.3c-0.5-0.2-1-0.5-1.3-1c-0.4-0.4-0.7-0.9-0.9-1.5
			c-0.2-0.6-0.3-1.2-0.3-1.9c0-0.7,0.1-1.3,0.3-1.9c0.2-0.6,0.5-1,0.9-1.4c0.4-0.4,0.8-0.7,1.3-0.9c0.5-0.2,1.1-0.3,1.7-0.3
			c0.6,0,1.1,0.1,1.6,0.3c0.5,0.2,0.9,0.5,1.3,0.9c0.4,0.4,0.7,0.9,0.9,1.4c0.2,0.6,0.3,1.2,0.3,1.9
			C180.2,198.4,180.1,199.1,179.9,199.6z"/>
		<path class="st2" d="M209.8,200.1c0,1.2-0.2,2.4-0.6,3.5c-0.4,1.1-1.1,2-1.9,2.8c-0.8,0.8-1.9,1.4-3.1,1.9
			c-1.2,0.5-2.7,0.7-4.3,0.7c-1.6,0-3.1-0.2-4.3-0.7c-1.2-0.5-2.2-1.1-3-1.9c-0.8-0.8-1.4-1.7-1.8-2.8c-0.4-1.1-0.6-2.2-0.6-3.5
			v-12.8h7.1v12c0,1,0.2,1.8,0.7,2.4c0.5,0.6,1.2,0.8,2.1,0.8c0.9,0,1.6-0.3,2.1-0.8c0.5-0.6,0.7-1.3,0.7-2.4v-12h7V200.1z"/>
		<path class="st2" d="M232.2,206.8c-0.5,0.3-1.1,0.6-1.7,0.8c-0.6,0.2-1.3,0.5-2,0.6c-0.7,0.2-1.5,0.3-2.3,0.4
			c-0.8,0.1-1.6,0.2-2.4,0.2c-1.7,0-3.2-0.3-4.6-0.8c-1.4-0.5-2.6-1.3-3.7-2.2c-1-1-1.9-2.1-2.4-3.5c-0.6-1.4-0.9-2.9-0.9-4.6
			c0-1.7,0.3-3.2,0.9-4.6c0.6-1.4,1.4-2.5,2.4-3.5c1-1,2.2-1.7,3.6-2.2c1.4-0.5,2.9-0.8,4.4-0.8c1.6,0,3.2,0.3,4.7,0.8
			c1.5,0.5,2.7,1.3,3.6,2.2l-4.1,5c-0.4-0.5-0.9-0.9-1.5-1.2c-0.6-0.3-1.3-0.5-2.2-0.5c-0.6,0-1.1,0.1-1.7,0.3c-0.5,0.2-1,0.6-1.4,1
			c-0.4,0.4-0.8,0.9-1,1.5c-0.3,0.6-0.4,1.3-0.4,2c0,1.5,0.4,2.7,1.1,3.6c0.8,0.9,2,1.4,3.7,1.4c0.3,0,0.6,0,0.9-0.1
			c0.3,0,0.6-0.1,0.7-0.2v-1.6h-3.4v-5.5h9.6V206.8z"/>
		<polygon class="st2" points="255.3,208.4 248.3,208.4 248.3,200.4 242.5,200.4 242.5,208.4 235.5,208.4 235.5,187.4 242.5,187.4 
			242.5,194.5 248.2,194.5 248.2,187.4 255.3,187.4 		"/>
		<polygon class="st2" points="274.6,193.3 269.4,193.3 269.4,208.4 262.4,208.4 262.4,193.3 257.2,193.3 257.2,187.4 274.6,187.4 
					"/>
		<path class="st2" d="M320,138.2c-1.9-3.6-4.4-6.5-7.6-8.7c-3.2-2.2-6.8-3.7-10.9-4.6c-4.1-0.9-8.4-1.3-13-1.3h-21.3v57.2h22.9
			c4.3,0,8.3-0.6,12.3-1.7c3.9-1.1,7.4-2.9,10.4-5.2c3-2.3,5.4-5.3,7.2-9c1.8-3.7,2.7-8,2.7-13C322.8,146.3,321.9,141.8,320,138.2z
			 M299.7,161.3c-2.4,2-5.9,2.9-10.4,2.9h-3.6v-24.3h4.3c4,0,7.3,1,9.7,3.1c2.4,2.1,3.6,5,3.6,8.7
			C303.3,156.1,302.1,159.3,299.7,161.3z"/>
		<g>
			<path class="st2" d="M274.8,197.8c0-1.7,0.3-3.2,0.9-4.5c0.6-1.3,1.4-2.5,2.4-3.4c1-0.9,2.3-1.7,3.7-2.2c1.4-0.5,3-0.8,4.6-0.8
				s3.2,0.3,4.6,0.8c1.4,0.5,2.6,1.2,3.7,2.2c1,0.9,1.9,2.1,2.5,3.4c0.6,1.3,0.9,2.9,0.9,4.5c0,1.7-0.3,3.2-0.9,4.6
				c-0.6,1.4-1.4,2.6-2.5,3.5c-1,1-2.3,1.7-3.7,2.3c-1.4,0.5-3,0.8-4.6,0.8s-3.2-0.3-4.6-0.8c-1.4-0.5-2.6-1.3-3.7-2.3
				c-1-1-1.8-2.2-2.4-3.5C275.1,201,274.8,199.5,274.8,197.8z M282.2,197.8c0,0.7,0.1,1.3,0.3,1.9c0.2,0.6,0.5,1.1,0.9,1.5
				c0.4,0.4,0.8,0.7,1.3,1c0.5,0.2,1.1,0.3,1.7,0.3c0.6,0,1.1-0.1,1.6-0.3c0.5-0.2,0.9-0.5,1.3-1c0.4-0.4,0.7-0.9,0.9-1.5
				c0.2-0.6,0.3-1.2,0.3-1.9c0-0.7-0.1-1.3-0.3-1.8c-0.2-0.6-0.5-1-0.9-1.4c-0.4-0.4-0.8-0.7-1.3-0.9c-0.5-0.2-1-0.3-1.6-0.3
				c-0.6,0-1.1,0.1-1.7,0.3c-0.5,0.2-1,0.5-1.3,0.9c-0.4,0.4-0.6,0.9-0.9,1.4C282.3,196.5,282.2,197.2,282.2,197.8z"/>
			<path class="st2" d="M307.5,200.1L307.5,200.1l-0.1,8.3h-6.8v-20.9h6.8v7.7h0.1l5.6-7.7h8.3l-7.9,9.6l8.2,11.3h-8.6L307.5,200.1z
				"/>
		</g>
	</g>
</g>
</svg>
