<svg id="Layer_1" data-name="Layer 1" xmlns="http://www.w3.org/2000/svg" viewBox="0 0 340.15 211.24">
        <defs>
          <style>
            .cls-1 {
              fill: #333;
            }
          </style>
        </defs>
        <title>hungerfreeOK_logo</title>
        <g>
          <polygon class="cls-1" points="16.82 145.27 16.82 155.22 7.36 155.22 7.36 145.27 0 145.27 0 171.85 7.36 171.85 7.36 161.75 16.82 161.75 16.82 171.85 24.18 171.85 24.18 145.27 16.82 145.27"/>
          <path class="cls-1" d="M41.77,231.76V216.84h7.48v14.77c0,3.83,1.93,5.66,4.89,5.66s4.9-1.75,4.9-5.47v-15h7.48v14.73c0,8.58-4.9,12.34-12.45,12.34s-12.3-3.83-12.3-12.15" transform="translate(-9.85 -71.56)"/>
          <polygon class="cls-1" points="64.42 145.27 71.3 145.27 82.23 159.32 82.23 145.27 89.52 145.27 89.52 171.85 83.06 171.85 71.71 157.27 71.71 171.85 64.42 171.85 64.42 145.27"/>
          <path class="cls-1" d="M106.54,230.2v-.08c0-7.74,6.08-13.82,14.31-13.82a15.48,15.48,0,0,1,10.78,3.87l-4.33,5.2a9.38,9.38,0,0,0-6.42-2.51,7,7,0,0,0-6.8,7.29v.08a7,7,0,0,0,7.21,7.36,7.5,7.5,0,0,0,4.25-1.1v-3.22h-5.24v-5.39h12.22v12a18,18,0,0,1-11.54,4.1c-8.28,0-14.47-5.69-14.47-13.74" transform="translate(-9.85 -71.56)"/>
          <polygon class="cls-1" points="130.17 145.27 151.55 145.27 151.55 151.54 137.46 151.54 137.46 155.56 150.22 155.56 150.22 161.37 137.46 161.37 137.46 165.59 151.74 165.59 151.74 171.85 130.17 171.85 130.17 145.27"/>
          <path class="cls-1" d="M168.72,216.84h12.57c4.06,0,6.87,1.06,8.65,2.89a8.23,8.23,0,0,1,2.36,6.19V226a8.4,8.4,0,0,1-5.47,8.16l6.34,9.26h-8.5l-5.35-8h-3.23v8h-7.36Zm12.22,12.76c2.5,0,4-1.22,4-3.15v-.08c0-2.08-1.52-3.15-4-3.15h-4.82v6.38Z" transform="translate(-9.85 -71.56)"/>
          <polygon class="cls-1" points="231.23 145.27 252.49 145.27 252.49 151.73 238.6 151.73 238.6 156.25 251.16 156.25 251.16 162.36 238.6 162.36 238.6 171.85 231.23 171.85 231.23 145.27"/>
          <path class="cls-1" d="M269.06,216.84h12.57c4.06,0,6.87,1.06,8.65,2.89a8.23,8.23,0,0,1,2.36,6.19V226a8.4,8.4,0,0,1-5.47,8.16l6.34,9.26H285l-5.35-8h-3.23v8h-7.36Zm12.22,12.76c2.5,0,4-1.22,4-3.15v-.08c0-2.08-1.52-3.15-4-3.15h-4.82v6.38Z" transform="translate(-9.85 -71.56)"/>
          <polygon class="cls-1" points="289.89 145.27 311.26 145.27 311.26 151.54 297.18 151.54 297.18 155.56 309.93 155.56 309.93 161.37 297.18 161.37 297.18 165.59 311.45 165.59 311.45 171.85 289.89 171.85 289.89 145.27"/>
          <polygon class="cls-1" points="318.59 145.27 339.96 145.27 339.96 151.54 325.88 151.54 325.88 155.56 338.63 155.56 338.63 161.37 325.88 161.37 325.88 165.59 340.15 165.59 340.15 171.85 318.59 171.85 318.59 145.27"/>
          <polygon class="cls-1" points="206.7 148.43 208.97 155.43 216.33 155.43 210.37 159.75 212.65 166.75 206.7 162.43 200.74 166.75 203.02 159.75 197.06 155.43 204.42 155.43 206.7 148.43"/>
          <polyline class="cls-1" points="205.29 40.62 205.29 106.28 179.94 104.22 179.94 63.26 147.41 63.26 147.41 102.79 122.06 100.72 122.06 0.34 147.41 0.34 147.41 40.78 179.94 40.78"/>
          <polyline class="cls-1" points="256.02 40.78 288.55 40.78 288.55 0.35 313.9 0.35 313.9 115.55 288.55 113.49 288.55 63.26 256.02 63.26 256.02 111.14 230.67 109.07 230.67 40.62"/>
          <rect class="cls-1" x="162.75" y="0.35" width="110.14" height="24.34"/>
          <polygon class="cls-1" points="107.61 24.34 16.64 19.34 16.21 0 107.61 0 107.61 24.34"/>
          <path class="cls-1" d="M22.84,282.8a12.08,12.08,0,0,1,.07-24.17,12.08,12.08,0,0,1-.07,24.17m0-21.73c-5.34,0-9.15,4.27-9.15,9.61s3.87,9.68,9.21,9.68,9.15-4.27,9.15-9.61-3.87-9.68-9.21-9.68" transform="translate(-9.85 -71.56)"/>
          <polygon class="cls-1" points="69.42 210.84 66.11 210.84 57.13 199.52 52.16 204.56 52.16 210.84 49.52 210.84 49.52 187.47 52.16 187.47 52.16 201.43 65.58 187.47 68.98 187.47 58.97 197.69 69.42 210.84"/>
          <polygon class="cls-1" points="92.52 187.47 95.16 187.47 95.16 208.4 108.31 208.4 108.31 210.84 92.52 210.84 92.52 187.47"/>
          <path class="cls-1" d="M163.8,282.4H161l-2.74-6.18H145.51l-2.77,6.18H140l10.65-23.53h2.47Zm-11.91-20.46-5.34,11.92h10.65Z" transform="translate(-9.85 -71.56)"/>
          <polygon class="cls-1" points="180.19 200.32 180.19 210.84 177.55 210.84 177.55 187.47 180.19 187.47 180.19 197.86 193.68 197.86 193.68 187.47 196.32 187.47 196.32 210.84 193.68 210.84 193.68 200.32 180.19 200.32"/>
          <path class="cls-1" d="M242.62,282.8a12.08,12.08,0,1,1,11.95-12.12,11.73,11.73,0,0,1-11.95,12.12m0-21.73c-5.34,0-9.15,4.27-9.15,9.61s3.87,9.68,9.21,9.68,9.15-4.27,9.15-9.61-3.87-9.68-9.21-9.68" transform="translate(-9.85 -71.56)"/>
          <polygon class="cls-1" points="280.52 204.43 280.38 204.43 271.87 191.95 271.87 210.84 269.3 210.84 269.3 187.47 271.97 187.47 280.48 200.23 289 187.47 291.67 187.47 291.67 210.84 289.03 210.84 289.03 191.91 280.52 204.43"/>
          <path class="cls-1" d="M348.89,282.4h-2.83l-2.74-6.18H330.6l-2.77,6.18h-2.7l10.65-23.53h2.47ZM337,261.94l-5.34,11.92h10.65Z" transform="translate(-9.85 -71.56)"/>
        </g>
      </svg>