<svg id="Layer_1" data-name="Layer 1" xmlns="http://www.w3.org/2000/svg" viewBox="0 0 340.2 290.3">
        <defs>
          <style>
            .cls-1 {
              fill: #333;
            }
          </style>
        </defs>
        <title>okdepted_logo</title>
        <g>
          <g id="_Group_" data-name="&lt;Group&gt;">
            <path class="cls-1" d="M16.5,295.1H40v5.6H10.3v-45H39.1v5.5H16.5v13.5H37.7v5.4H16.5Z" transform="translate(-9.9 -34.3)"/>
            <path class="cls-1" d="M46.2,255.8H61.6a28,28,0,0,1,8.6,1.3,22.23,22.23,0,0,1,7.8,4,20.89,20.89,0,0,1,5.7,7,22.6,22.6,0,0,1,2.2,10.2,20.8,20.8,0,0,1-2.2,10,20.47,20.47,0,0,1-5.7,7,24.26,24.26,0,0,1-7.8,4.1,29.16,29.16,0,0,1-8.6,1.4H46.2Zm6.3,39.4h7.9a25.64,25.64,0,0,0,7.5-1.1,19.32,19.32,0,0,0,6-3.3,13.82,13.82,0,0,0,3.9-5.3,18.12,18.12,0,0,0,1.4-7.2,19.14,19.14,0,0,0-1.4-7.4,13.82,13.82,0,0,0-3.9-5.3,17.29,17.29,0,0,0-6-3.2,25.64,25.64,0,0,0-7.5-1.1H52.5Z" transform="translate(-9.9 -34.3)"/>
            <path class="cls-1" d="M108.4,301.9a18.24,18.24,0,0,1-7.7-1.5,15.94,15.94,0,0,1-5.5-4,16.81,16.81,0,0,1-3.2-5.7,20.7,20.7,0,0,1-1-6.6V255.8h6.3v27.9a17.4,17.4,0,0,0,.6,4.5,11.37,11.37,0,0,0,1.9,4,10.7,10.7,0,0,0,3.4,2.9,11.89,11.89,0,0,0,5.3,1.1,12.2,12.2,0,0,0,5.3-1.1,9.91,9.91,0,0,0,3.5-2.9,11.37,11.37,0,0,0,1.9-4,17.4,17.4,0,0,0,.6-4.5V255.8h6.3v28.3a20.7,20.7,0,0,1-1,6.6,17.82,17.82,0,0,1-3.2,5.7,15.06,15.06,0,0,1-5.5,4A20.37,20.37,0,0,1,108.4,301.9Z" transform="translate(-9.9 -34.3)"/>
            <path class="cls-1" d="M171.8,293.7a20.84,20.84,0,0,1-6.9,5.9,21.35,21.35,0,0,1-10.2,2.3,26.72,26.72,0,0,1-9.5-1.7,21.83,21.83,0,0,1-12.4-12.4,26.5,26.5,0,0,1,0-19.2,21.84,21.84,0,0,1,12.6-12.2,26.72,26.72,0,0,1,9.5-1.7,23.83,23.83,0,0,1,4.6.4,21.33,21.33,0,0,1,4.5,1.3,16.42,16.42,0,0,1,3.9,2.2,14.21,14.21,0,0,1,3,3l-5,3.8a12.91,12.91,0,0,0-4.7-3.8,14.43,14.43,0,0,0-6.5-1.5,18,18,0,0,0-7.1,1.4,16.27,16.27,0,0,0-5.4,3.9,18.37,18.37,0,0,0-3.4,5.7,20.19,20.19,0,0,0-1.2,7,20.76,20.76,0,0,0,1.2,7.1,16.33,16.33,0,0,0,3.4,5.7,15.61,15.61,0,0,0,5.3,3.8,17.49,17.49,0,0,0,7,1.4,15.84,15.84,0,0,0,6.9-1.5,12.79,12.79,0,0,0,5.1-4.4Z" transform="translate(-9.9 -34.3)"/>
            <path class="cls-1" d="M178.1,300.7h-7l19.5-45h5.7l19.3,45h-7.1l-4.6-11H182.6Zm6.7-16.6h16.8L193.2,263Z" transform="translate(-9.9 -34.3)"/>
            <path class="cls-1" d="M227.5,300.7h-6.3V261.3H206.8v-5.5H242v5.5H227.6v39.4Z" transform="translate(-9.9 -34.3)"/>
            <path class="cls-1" d="M252.8,300.7h-6.3v-45h6.3Z" transform="translate(-9.9 -34.3)"/>
            <path class="cls-1" d="M305.8,278.2a24.87,24.87,0,0,1-1.8,9.6,22.93,22.93,0,0,1-5,7.5,22.13,22.13,0,0,1-7.6,4.9,24.69,24.69,0,0,1-9.5,1.7,26.72,26.72,0,0,1-9.5-1.7,22.68,22.68,0,0,1-7.5-4.9,22.93,22.93,0,0,1-5-7.5,26.5,26.5,0,0,1,0-19.2,20.2,20.2,0,0,1,5-7.4,21,21,0,0,1,7.5-4.8,27.39,27.39,0,0,1,19,0A21.84,21.84,0,0,1,304,268.6,24.87,24.87,0,0,1,305.8,278.2Zm-6.8,0a20.19,20.19,0,0,0-1.2-7,16.33,16.33,0,0,0-3.4-5.7,15,15,0,0,0-5.4-3.9,16.38,16.38,0,0,0-7.1-1.4,17.49,17.49,0,0,0-7,1.4,16.23,16.23,0,0,0-5.3,3.9,19.17,19.17,0,0,0-3.4,5.7,19.79,19.79,0,0,0-1.2,7,20.19,20.19,0,0,0,1.2,7,16.33,16.33,0,0,0,3.4,5.7,16.64,16.64,0,0,0,5.3,3.8,18.2,18.2,0,0,0,14,0,16,16,0,0,0,5.4-3.8,16.33,16.33,0,0,0,3.4-5.7A18.15,18.15,0,0,0,299,278.2Z" transform="translate(-9.9 -34.3)"/>
            <path class="cls-1" d="M342.9,291.7h.1V255.8h6.3v45h-7.9L317.6,264h-.1v36.7h-6.3v-45h8.2Z" transform="translate(-9.9 -34.3)"/>
          </g>
          <g id="_Group_2" data-name="&lt;Group&gt;">
            <path class="cls-1" d="M25,239.2a9.29,9.29,0,0,1-.5,2.9,7.12,7.12,0,0,1-1.5,2.2,5.93,5.93,0,0,1-2.3,1.4,8.81,8.81,0,0,1-2.9.5,9.29,9.29,0,0,1-2.9-.5,6.78,6.78,0,0,1-2.3-1.4,8.55,8.55,0,0,1-1.5-2.2,6.82,6.82,0,0,1-.5-2.9,8.81,8.81,0,0,1,.5-2.9,8.55,8.55,0,0,1,1.5-2.2,5.93,5.93,0,0,1,2.3-1.4,8.81,8.81,0,0,1,2.9-.5,9.29,9.29,0,0,1,2.9.5,6.78,6.78,0,0,1,2.3,1.4,7.12,7.12,0,0,1,1.5,2.2A8.81,8.81,0,0,1,25,239.2Zm-3.5,0a4.15,4.15,0,0,0-.3-1.6,3.53,3.53,0,0,0-.8-1.3,2.55,2.55,0,0,0-1.2-.8,4,4,0,0,0-1.5-.3,3.34,3.34,0,0,0-1.5.3,3.6,3.6,0,0,0-1.2.8,5.67,5.67,0,0,0-.8,1.3,4.42,4.42,0,0,0,0,3.2,3.53,3.53,0,0,0,.8,1.3,2.55,2.55,0,0,0,1.2.8,4,4,0,0,0,1.5.3,3.34,3.34,0,0,0,1.5-.3,3.6,3.6,0,0,0,1.2-.8,5.67,5.67,0,0,0,.8-1.3A2.88,2.88,0,0,0,21.5,239.2Z" transform="translate(-9.9 -34.3)"/>
            <path class="cls-1" d="M35.1,245.8l-4.9-6.1h0v6.1H27.1V232.6h3.1V238h.1l4.7-5.4h4l-5.7,6.1,6,7.1H35.1Z" transform="translate(-9.9 -34.3)"/>
            <path class="cls-1" d="M40.3,245.8V232.6h3.2V243h5.1v2.8Z" transform="translate(-9.9 -34.3)"/>
            <path class="cls-1" d="M59,245.8l-1-2.6H52.9l-1,2.6H48.4l5.5-13.2H57l5.5,13.2Zm-3.5-9.6-1.7,4.5h3.3Z" transform="translate(-9.9 -34.3)"/>
            <path class="cls-1" d="M72,245.8v-5.5H66.9v5.5H63.7V232.6h3.2v5H72v-5h3.2v13.2Z" transform="translate(-9.9 -34.3)"/>
            <path class="cls-1" d="M91.6,239.2a9.29,9.29,0,0,1-.5,2.9,7.12,7.12,0,0,1-1.5,2.2,5.93,5.93,0,0,1-2.3,1.4,8.66,8.66,0,0,1-5.8,0,6.78,6.78,0,0,1-2.3-1.4,8.55,8.55,0,0,1-1.5-2.2,6.82,6.82,0,0,1-.5-2.9,8.81,8.81,0,0,1,.5-2.9,8.55,8.55,0,0,1,1.5-2.2,5.93,5.93,0,0,1,2.3-1.4,8.66,8.66,0,0,1,5.8,0,6.78,6.78,0,0,1,2.3,1.4,7.12,7.12,0,0,1,1.5,2.2A8.81,8.81,0,0,1,91.6,239.2Zm-3.4,0a4.15,4.15,0,0,0-.3-1.6,3.53,3.53,0,0,0-.8-1.3,2.55,2.55,0,0,0-1.2-.8,4,4,0,0,0-1.5-.3,3.34,3.34,0,0,0-1.5.3,3.6,3.6,0,0,0-1.2.8,5.67,5.67,0,0,0-.8,1.3,4.42,4.42,0,0,0,0,3.2,3.53,3.53,0,0,0,.8,1.3,2.55,2.55,0,0,0,1.2.8,4,4,0,0,0,1.5.3,3.34,3.34,0,0,0,1.5-.3,3.6,3.6,0,0,0,1.2-.8,5.67,5.67,0,0,0,.8-1.3A4.15,4.15,0,0,0,88.2,239.2Z" transform="translate(-9.9 -34.3)"/>
            <path class="cls-1" d="M105.7,245.8l.1-9.3h-.1l-3.4,9.3H100l-3.3-9.3h-.1l.1,9.3h-3V232.6h4.5l3,8.5h.1l2.9-8.5h4.6v13.2Z" transform="translate(-9.9 -34.3)"/>
            <path class="cls-1" d="M120.4,245.8l-1-2.6h-5.1l-1,2.6h-3.5l5.5-13.2h3.1l5.5,13.2Zm-3.5-9.6-1.7,4.5h3.3Z" transform="translate(-9.9 -34.3)"/>
            <path class="cls-1" d="M136.7,236.1a3.13,3.13,0,0,0-1.1-.8,3.08,3.08,0,0,0-1.3-.3,1.27,1.27,0,0,0-.6.1,1.42,1.42,0,0,0-.6.2.78.78,0,0,0-.4.4,1.42,1.42,0,0,0-.2.6,1.27,1.27,0,0,0,.1.6.78.78,0,0,0,.4.4l.6.3a6.89,6.89,0,0,0,.8.3c.4.2.9.3,1.4.5a5.39,5.39,0,0,1,1.3.7,5.24,5.24,0,0,1,1,1.1,2.73,2.73,0,0,1,.4,1.6,4.21,4.21,0,0,1-.4,2,5.26,5.26,0,0,1-1.1,1.4,4.81,4.81,0,0,1-1.6.8,5.82,5.82,0,0,1-1.9.3,8.08,8.08,0,0,1-2.7-.5,5.55,5.55,0,0,1-2.2-1.4l2.1-2.1a3.45,3.45,0,0,0,1.3,1,3.17,3.17,0,0,0,1.6.4,1.7,1.7,0,0,0,.7-.1,1.42,1.42,0,0,0,.6-.2c.2-.1.3-.3.4-.4a1.48,1.48,0,0,0,.1-.7,1.07,1.07,0,0,0-.2-.6c-.1-.2-.3-.3-.5-.5a3.92,3.92,0,0,0-.9-.4c-.3-.1-.7-.2-1.2-.4a6.12,6.12,0,0,1-1.2-.5,4.13,4.13,0,0,1-1.1-.7,3.13,3.13,0,0,1-.8-1.1,3.34,3.34,0,0,1-.3-1.5,3.81,3.81,0,0,1,.4-1.9,4.89,4.89,0,0,1,1.2-1.3,4.59,4.59,0,0,1,1.6-.7,5.54,5.54,0,0,1,1.8-.2,6.56,6.56,0,0,1,2.3.4,5.61,5.61,0,0,1,2,1.2Z" transform="translate(-9.9 -34.3)"/>
            <path class="cls-1" d="M146.4,235.4v10.5h-3.2V235.4h-3.7v-2.7h10.6v2.7Z" transform="translate(-9.9 -34.3)"/>
            <path class="cls-1" d="M160.5,245.8l-1-2.6h-5.1l-1,2.6h-3.5l5.5-13.2h3.1l5.5,13.2Zm-3.6-9.6-1.7,4.5h3.3Z" transform="translate(-9.9 -34.3)"/>
            <path class="cls-1" d="M170.8,235.4v10.5h-3.2V235.4h-3.7v-2.7h10.6v2.7Z" transform="translate(-9.9 -34.3)"/>
            <path class="cls-1" d="M175.9,245.8V232.6h8.9v2.7H179v2.5h5.5v2.6H179v2.7h6.1v2.7Z" transform="translate(-9.9 -34.3)"/>
            <path class="cls-1" d="M204.2,239.2a7,7,0,0,1-.6,3,6.84,6.84,0,0,1-1.7,2.1,9,9,0,0,1-2.4,1.2,8.42,8.42,0,0,1-2.7.4h-4.9V232.7h4.8a14.07,14.07,0,0,1,2.8.3,6.59,6.59,0,0,1,2.4,1.1,5.51,5.51,0,0,1,1.7,2A7.14,7.14,0,0,1,204.2,239.2Zm-3.3,0a3.81,3.81,0,0,0-.4-1.9,2.94,2.94,0,0,0-1-1.2,3.51,3.51,0,0,0-1.4-.6,7.77,7.77,0,0,0-1.6-.2H195V243h1.5a7.77,7.77,0,0,0,1.6-.2,3.51,3.51,0,0,0,1.4-.6,4,4,0,0,0,1-1.2A3.21,3.21,0,0,0,200.9,239.2Z" transform="translate(-9.9 -34.3)"/>
            <path class="cls-1" d="M206.3,245.8V232.6h8.9v2.7h-5.8v2.5h5.5v2.6h-5.5v2.7h6.1v2.7Z" transform="translate(-9.9 -34.3)"/>
            <path class="cls-1" d="M227.6,236.7a3.58,3.58,0,0,1-.4,1.9,3.74,3.74,0,0,1-1.2,1.3,4.36,4.36,0,0,1-1.7.7,12.31,12.31,0,0,1-2,.2h-1.6v5h-3.2V232.6h4.8a12.31,12.31,0,0,1,2,.2,3.9,3.9,0,0,1,1.6.7,3.18,3.18,0,0,1,1.1,1.2A3.61,3.61,0,0,1,227.6,236.7Zm-3.2,0a1.88,1.88,0,0,0-.2-.8,1.21,1.21,0,0,0-.5-.5,1.45,1.45,0,0,0-.7-.2c-.3,0-.5-.1-.8-.1h-1.4v3.1h1.3a2.77,2.77,0,0,0,.9-.1c.3-.1.5-.1.7-.3a1.21,1.21,0,0,0,.5-.5C224.3,237.3,224.4,237.1,224.4,236.7Z" transform="translate(-9.9 -34.3)"/>
            <path class="cls-1" d="M238.4,245.8l-1-2.6h-5.1l-1,2.6h-3.5l5.5-13.2h3.1l5.5,13.2Zm-3.5-9.6-1.7,4.5h3.3Z" transform="translate(-9.9 -34.3)"/>
            <path class="cls-1" d="M250.1,245.8l-2.9-5.2h-1.1v5.2H243V232.6h5a12.25,12.25,0,0,1,1.9.2,4.59,4.59,0,0,1,1.6.7,2.54,2.54,0,0,1,1.1,1.2,4.88,4.88,0,0,1,.4,1.9,3.69,3.69,0,0,1-.7,2.3,4.64,4.64,0,0,1-2,1.3l3.4,5.6Zm-.1-9.1a1.88,1.88,0,0,0-.2-.8,1,1,0,0,0-.5-.4,1.45,1.45,0,0,0-.7-.2c-.3,0-.5-.1-.7-.1h-1.7v3.1h1.5a2.2,2.2,0,0,0,.8-.1,1.45,1.45,0,0,0,.7-.2,2.65,2.65,0,0,0,.6-.5A1.88,1.88,0,0,0,250,236.7Z" transform="translate(-9.9 -34.3)"/>
            <path class="cls-1" d="M261.1,235.4v10.5h-3.2V235.4h-3.7v-2.7h10.6v2.7Z" transform="translate(-9.9 -34.3)"/>
            <path class="cls-1" d="M278.2,245.8l.1-9.3h-.1l-3.4,9.3h-2.2l-3.3-9.3h-.1l.1,9.3h-3V232.6h4.5l3,8.5h.1l2.9-8.5h4.6v13.2Z" transform="translate(-9.9 -34.3)"/>
            <path class="cls-1" d="M284,245.8V232.6h8.9v2.7h-5.8v2.5h5.5v2.6h-5.5v2.7h6.1v2.7Z" transform="translate(-9.9 -34.3)"/>
            <path class="cls-1" d="M303.7,245.8l-5.3-8.6h-.1l.1,8.6h-3.1V232.6h3.6l5.3,8.6h.1l-.1-8.6h3.1v13.2Z" transform="translate(-9.9 -34.3)"/>
            <path class="cls-1" d="M315.7,235.4v10.5h-3.2V235.4h-3.7v-2.7h10.6v2.7Z" transform="translate(-9.9 -34.3)"/>
            <path class="cls-1" d="M339.2,239.2a9.29,9.29,0,0,1-.5,2.9,7.12,7.12,0,0,1-1.5,2.2,5.93,5.93,0,0,1-2.3,1.4,8.81,8.81,0,0,1-2.9.5,9.29,9.29,0,0,1-2.9-.5,6.78,6.78,0,0,1-2.3-1.4,6.62,6.62,0,0,1-1.5-2.2,6.82,6.82,0,0,1-.5-2.9,8.81,8.81,0,0,1,.5-2.9,8.55,8.55,0,0,1,1.5-2.2,5.93,5.93,0,0,1,2.3-1.4,8.81,8.81,0,0,1,2.9-.5,9.29,9.29,0,0,1,2.9.5,6.78,6.78,0,0,1,2.3,1.4,7.12,7.12,0,0,1,1.5,2.2A8.81,8.81,0,0,1,339.2,239.2Zm-3.4,0a4.15,4.15,0,0,0-.3-1.6,3.53,3.53,0,0,0-.8-1.3,2.55,2.55,0,0,0-1.2-.8,4,4,0,0,0-1.5-.3,3.34,3.34,0,0,0-1.5.3,3.6,3.6,0,0,0-1.2.8,5.67,5.67,0,0,0-.8,1.3,4.42,4.42,0,0,0,0,3.2,3.53,3.53,0,0,0,.8,1.3,2.55,2.55,0,0,0,1.2.8,4,4,0,0,0,1.5.3,3.34,3.34,0,0,0,1.5-.3,3.6,3.6,0,0,0,1.2-.8,5.67,5.67,0,0,0,.8-1.3A4.15,4.15,0,0,0,335.8,239.2Z" transform="translate(-9.9 -34.3)"/>
            <path class="cls-1" d="M344.5,235.4v2.7h5.1v2.6h-5.1v5.1h-3.1V232.6h8.7v2.7h-5.6Z" transform="translate(-9.9 -34.3)"/>
          </g>
          <g id="_Group_3" data-name="&lt;Group&gt;">
            <path class="cls-1" d="M59.9,315.3a2.29,2.29,0,0,0-1-.7,5,5,0,0,0-1.3-.3,3.19,3.19,0,0,0-1.4.3,4.44,4.44,0,0,0-1.1.8,2.92,2.92,0,0,0-.7,1.2,4.42,4.42,0,0,0,0,3.2,3.46,3.46,0,0,0,.7,1.2,4.44,4.44,0,0,0,1.1.8,3.08,3.08,0,0,0,1.3.3,4,4,0,0,0,1.5-.3,2,2,0,0,0,1-1l2.2,1.7a4.47,4.47,0,0,1-2,1.6,6.87,6.87,0,0,1-2.4.5,7.46,7.46,0,0,1-2.6-.4,5.71,5.71,0,0,1-2.1-1.3,7.18,7.18,0,0,1-1.4-2,7.51,7.51,0,0,1-.5-2.6,6.69,6.69,0,0,1,.5-2.6,4.83,4.83,0,0,1,1.4-2,5.71,5.71,0,0,1,2.1-1.3,7.46,7.46,0,0,1,2.6-.4,4.48,4.48,0,0,1,1.1.1l1.1.3a3.13,3.13,0,0,1,1,.5,6.47,6.47,0,0,1,.9.8Z" transform="translate(-9.9 -34.3)"/>
            <path class="cls-1" d="M66.1,312.2h2.7v4.5H74v-4.5h2.7v12.1H74v-5.2H68.8v5.2H66.1Z" transform="translate(-9.9 -34.3)"/>
            <path class="cls-1" d="M85.5,312.2h2.2L93,324.3H90l-1-2.6H84.3l-1,2.6H80.4Zm1.1,3.5-1.5,3.8h3Z" transform="translate(-9.9 -34.3)"/>
            <path class="cls-1" d="M96.6,312.2h4l2.8,7.9h0l2.8-7.9h4v12.1h-2.7V315h0l-3.2,9.3h-2L99.2,315h0v9.3H96.5V312.2Z" transform="translate(-9.9 -34.3)"/>
            <path class="cls-1" d="M115.2,312.2h4.5a11,11,0,0,1,1.8.2,4,4,0,0,1,1.5.6,5.24,5.24,0,0,1,1,1.1,4.78,4.78,0,0,1,.4,1.8,4.84,4.84,0,0,1-.3,1.8,2,2,0,0,1-.9,1.1,3.51,3.51,0,0,1-1.4.6,9,9,0,0,1-1.8.2h-2v4.7h-2.7V312.2Zm2.7,5.1h1.8a1.7,1.7,0,0,0,.7-.1,1.42,1.42,0,0,0,.6-.2c.2-.1.3-.3.4-.4a1.45,1.45,0,0,0,.2-.7,1.17,1.17,0,0,0-.2-.7,2.18,2.18,0,0,0-.5-.4,1.85,1.85,0,0,0-.7-.2H118v2.7Z" transform="translate(-9.9 -34.3)"/>
            <path class="cls-1" d="M128.4,312.2h2.7v12.1h-2.7Z" transform="translate(-9.9 -34.3)"/>
            <path class="cls-1" d="M135.3,318.3a6.69,6.69,0,0,1,.5-2.6,4.83,4.83,0,0,1,1.4-2,5.71,5.71,0,0,1,2.1-1.3,8.65,8.65,0,0,1,5.2,0,5.71,5.71,0,0,1,2.1,1.3,7.18,7.18,0,0,1,1.4,2,7.51,7.51,0,0,1,.5,2.6,6.69,6.69,0,0,1-.5,2.6,4.83,4.83,0,0,1-1.4,2,5.71,5.71,0,0,1-2.1,1.3,8.65,8.65,0,0,1-5.2,0,5.71,5.71,0,0,1-2.1-1.3,7.18,7.18,0,0,1-1.4-2A5.75,5.75,0,0,1,135.3,318.3Zm2.7,0a4.15,4.15,0,0,0,.3,1.6,2.55,2.55,0,0,0,.8,1.2,3.6,3.6,0,0,0,1.2.8,4.42,4.42,0,0,0,3.2,0,3.6,3.6,0,0,0,1.2-.8,5,5,0,0,0,.8-1.2,4.42,4.42,0,0,0,0-3.2,2.55,2.55,0,0,0-.8-1.2,3.6,3.6,0,0,0-1.2-.8,4.42,4.42,0,0,0-3.2,0,3.6,3.6,0,0,0-1.2.8,5,5,0,0,0-.8,1.2A4.15,4.15,0,0,0,138,318.3Z" transform="translate(-9.9 -34.3)"/>
            <path class="cls-1" d="M152.6,312.2h3.6l5.2,8.4h0v-8.4h2.7v12.1h-3.5l-5.3-8.6h0v8.6h-2.7Z" transform="translate(-9.9 -34.3)"/>
            <path class="cls-1" d="M176.5,312.2h8.2v2.5h-5.6V317h5.3v2.5h-5.3V322H185v2.5h-8.6V312.2Z" transform="translate(-9.9 -34.3)"/>
            <path class="cls-1" d="M192.6,318l-4-5.8H192l2.6,4.3,2.5-4.3h3.2l-3.9,5.7,4.4,6.4h-3.4l-3-4.9-2.9,4.9h-3.2Z" transform="translate(-9.9 -34.3)"/>
            <path class="cls-1" d="M212.3,315.3a2.29,2.29,0,0,0-1-.7,2.77,2.77,0,0,0-1.3-.3,3.19,3.19,0,0,0-1.4.3,4.44,4.44,0,0,0-1.1.8,2.92,2.92,0,0,0-.7,1.2,4.42,4.42,0,0,0,0,3.2,3.46,3.46,0,0,0,.7,1.2,4.44,4.44,0,0,0,1.1.8,3.08,3.08,0,0,0,1.3.3,4,4,0,0,0,1.5-.3,2,2,0,0,0,1-1l2.2,1.7a4.47,4.47,0,0,1-2,1.6,6.87,6.87,0,0,1-2.4.5,7.46,7.46,0,0,1-2.6-.4,5.71,5.71,0,0,1-2.1-1.3,7.18,7.18,0,0,1-1.4-2,7.51,7.51,0,0,1-.5-2.6,6.69,6.69,0,0,1,.5-2.6,4.83,4.83,0,0,1,1.4-2,6.39,6.39,0,0,1,4.7-1.7,4.48,4.48,0,0,1,1.1.1l1.1.3a3.13,3.13,0,0,1,1,.5,6.47,6.47,0,0,1,.9.8Z" transform="translate(-9.9 -34.3)"/>
            <path class="cls-1" d="M218.6,312.2h8.2v2.5h-5.6V317h5.3v2.5h-5.3V322h5.9v2.5h-8.6V312.2Z" transform="translate(-9.9 -34.3)"/>
            <path class="cls-1" d="M231.8,312.2h2.7v9.7h5v2.5h-7.6V312.2Z" transform="translate(-9.9 -34.3)"/>
            <path class="cls-1" d="M243.4,312.2h2.7v9.7h5v2.5h-7.6V312.2Z" transform="translate(-9.9 -34.3)"/>
            <path class="cls-1" d="M255,312.2h8.2v2.5h-5.6V317h5.3v2.5h-5.3V322h5.9v2.5H255Z" transform="translate(-9.9 -34.3)"/>
            <path class="cls-1" d="M268.1,312.2h3.6l5.2,8.4h0v-8.4h2.7v12.1h-3.5l-5.3-8.6h0v8.6h-2.7V312.2Z" transform="translate(-9.9 -34.3)"/>
            <path class="cls-1" d="M292.4,315.3a2.29,2.29,0,0,0-1-.7,2.77,2.77,0,0,0-1.3-.3,3.19,3.19,0,0,0-1.4.3,4.44,4.44,0,0,0-1.1.8,2.92,2.92,0,0,0-.7,1.2,4.42,4.42,0,0,0,0,3.2,3.46,3.46,0,0,0,.7,1.2,4.44,4.44,0,0,0,1.1.8,3.08,3.08,0,0,0,1.3.3,4,4,0,0,0,1.5-.3,2,2,0,0,0,1-1l2.2,1.7a4.47,4.47,0,0,1-2,1.6,6.87,6.87,0,0,1-2.4.5,7.46,7.46,0,0,1-2.6-.4,5.71,5.71,0,0,1-2.1-1.3,7.18,7.18,0,0,1-1.4-2,7.51,7.51,0,0,1-.5-2.6,6.69,6.69,0,0,1,.5-2.6,4.83,4.83,0,0,1,1.4-2,5.71,5.71,0,0,1,2.1-1.3,7.46,7.46,0,0,1,2.6-.4,4.48,4.48,0,0,1,1.1.1l1.1.3a3.13,3.13,0,0,1,1,.5,6.47,6.47,0,0,1,.9.8Z" transform="translate(-9.9 -34.3)"/>
            <path class="cls-1" d="M298.8,312.2H307v2.5h-5.6V317h5.3v2.5h-5.3V322h5.9v2.5h-8.6V312.2Z" transform="translate(-9.9 -34.3)"/>
          </g>
          <rect id="_Path_" data-name="&lt;Path&gt;" class="cls-1" x="305" y="282.2" width="34.2" height="2.4"/>
          <rect id="_Path_2" data-name="&lt;Path&gt;" class="cls-1" y="282.2" width="34.2" height="2.4"/>
          <polygon id="_Path_3" data-name="&lt;Path&gt;" class="cls-1" points="131 87.8 160.7 58.1 135.9 33.3 79.4 89.8 142.4 152.9 169.3 126 131 87.8"/>
          <polygon class="cls-1" points="258.7 89.9 258.8 89.9 258.8 90 259 89.8 169.2 0 144.3 24.8 209.3 89.8 209.2 89.9 209.8 89.9 258.7 89.9"/>
          <path class="cls-1" d="M184.1,124.2a3.66,3.66,0,0,0-3.2-1.9,3.6,3.6,0,1,0,0,7.2,3.66,3.66,0,0,0,3.2-1.9h31.7l3.4-3.4Z" transform="translate(-9.9 -34.3)"/>
          <path class="cls-1" d="M268.7,181.2v-7a3.64,3.64,0,0,0,0-6.4V124.3l-3.4,3.4v40.2a3.64,3.64,0,0,0,0,6.4v7l-3.2,33h9.8Z" transform="translate(-9.9 -34.3)"/>
          <g>
            <path class="cls-1" d="M216.6,127.5h-.8l-61.6,61.6L179,213.9l86.2-86.2v-.2H216.6Z" transform="translate(-9.9 -34.3)"/>
            <path class="cls-1" d="M184.4,183a6.07,6.07,0,0,0-8.7-.2" transform="translate(-9.9 -34.3)"/>
          </g>
          <rect id="_Path_4" data-name="&lt;Path&gt;" class="cls-1" x="161.42" y="111.12" width="9.6" height="51.7" transform="translate(-58.06 123.35) rotate(-45)"/>
        </g>
      </svg>