<?xml version="1.0" encoding="utf-8"?>
<!-- Generator: Adobe Illustrator 21.0.2, SVG Export Plug-In . SVG Version: 6.00 Build 0)  -->
<svg version="1.1" id="lesleyNorton_orangeMarker" xmlns="http://www.w3.org/2000/svg" xmlns:xlink="http://www.w3.org/1999/xlink" x="0px" y="0px"
	 viewBox="0 0 33 51.5" style="enable-background:new 0 0 33 51.5;" xml:space="preserve">
<style type="text/css">
	.st0{opacity:0.43;fill:#F69621;enable-background:new    ;}
	.st1{fill:url(#SVGID_1_);}
	.st2{fill:#F69621;}
	.st3{fill:#F2B620;}
</style>
<ellipse class="st0" cx="16.5" cy="47.8" rx="14.8" ry="3.7"/>
<linearGradient id="SVGID_1_" gradientUnits="userSpaceOnUse" x1="17.7803" y1="-60.3207" x2="16.1136" y2="42.6793">
	<stop  offset="0" style="stop-color:#F2B620"/>
	<stop  offset="1" style="stop-color:#F69621"/>
</linearGradient>
<path class="st1" d="M16.5,0C7.3,0,0,7.5,0,16.6c0,2.9,0.8,5.7,2.2,8.2l13.3,23c0.4,0.6,1.1,0.8,1.7,0.4c0.2-0.1,0.3-0.2,0.4-0.4
	l13.3-23c4.5-7.9,1.8-18.1-6.2-22.6C22.2,0.8,19.4,0,16.5,0z"/>
<rect x="-387.7" y="-50" class="st2" width="295" height="247"/>
<rect x="-397.7" y="-111" class="st3" width="295" height="247"/>
</svg>
